<svg xmlns="http://www.w3.org/2000/svg" version="1.1" xmlns:xlink="http://www.w3.org/1999/xlink" xmlns:svgjs="http://svgjs.dev/svgjs" width="128" height="128" viewBox="0 0 128 128"><g transform="matrix(0.4327731092436975,0,0,0.4327731092436975,36.45107639510656,12.760752631578939)"><svg viewBox="0 0 51 95" data-background-color="#61777f" preserveAspectRatio="xMidYMid meet" height="238" width="128" xmlns="http://www.w3.org/2000/svg" xmlns:xlink="http://www.w3.org/1999/xlink"><g id="tight-bounds" transform="matrix(1,0,0,1,-0.13676921145354015,-0.24049999999999727)"><svg viewBox="0 0 51.27353842290708 95.481" height="95.481" width="51.27353842290708"><g><svg viewBox="0 0 51.27353842290708 95.481" height="95.481" width="51.27353842290708"><g><svg viewBox="0 0 51.27353842290708 95.481" height="95.481" width="51.27353842290708"><g><svg viewBox="0 0 51.27353842290708 95.481" height="95.481" width="51.27353842290708"><g><svg viewBox="0 0 51.27353842290708 95.481" height="95.481" width="51.27353842290708"><g><svg viewBox="0 0 51.27353842290708 95.481" height="95.481" width="51.27353842290708"><g><svg xmlns="http://www.w3.org/2000/svg" xmlns:xlink="http://www.w3.org/1999/xlink" version="1.1" x="0" y="0" viewBox="0 0 244.7068587676523 455.69032878674267" enable-background="new 0 0 245 456" xml:space="preserve" height="95.481" width="51.27353842290708" class="icon-icon-0" data-fill-palette-color="accent" id="icon-0"><g fill="#ffffff" data-fill-palette-color="accent"><path fill-rule="evenodd" clip-rule="evenodd" d="M66.719 250.246c10.056-2.388 23.136-2.497 29.022-13.188C26.282 223.888 6.417 238.711 0 257.754c0.589 0.463 6.875-0.044 7.509 0 30.626 2.168 35.485 12.341 24.826 41.42-4.218 11.499-9.258 22.698-13.302 34.253-8.798 25.136 0.335 45.965 17.955 68.556-6.321-27.848 4.358-46.745 19.517-63.973C79.834 311.491 86.736 282.901 66.719 250.246z" fill="#ffffff" data-fill-palette-color="accent"></path><path d="M102.867 285.896C127.406 167.838 55.878 0 55.878 0c52.328 28.221 86.364 63.887 104.847 99.895 28.88 56.262 8.923 148.364 8.923 148.364 26.79-52.592 12.182-109.986 15.526-105.271 3.344 4.714 30.776 26.123 38.796 58.054 13.768 54.831-28.454 119.63-28.454 119.63 22.456-20.259 38.813-73.074 38.813-73.074s13.472 15.801 9.717 53.429c-5.446 54.58-63.969 81.744-63.969 81.744 10.325 2.578 45.537-19.664 45.537-19.664-7.427 19.481-20.755 38.636-30.027 45.521-17.246 12.811-54.652 14.804-54.652 14.804 14.884 5.012 29.916 4.239 29.916 4.239-34.292 31.525-82.289 11.78-82.289 11.78 11.066 10.983 16.54 14.089 19.194 14.758-12.016 4.858-37.757-2.215-53.315-21.482-7.562-9.364-18.773-37.628-11.264-58.324 8.092-22.301 20.65-35.746 33.791-45.153C83.801 324.356 99.703 301.122 102.867 285.896z" fill="#ffffff" data-fill-palette-color="accent"></path></g></svg><g></g></g></svg></g></svg></g></svg></g></svg></g></svg></g><defs></defs></svg><rect width="51.27353842290708" height="95.481" fill="none" stroke="none" visibility="hidden"></rect></g></svg></g></svg>